<svg xmlns:xlink="http://www.w3.org/1999/xlink" xmlns="http://www.w3.org/2000/svg" viewBox="0 0 338.81368326464417 85.43961921203513" preserveAspectRatio="xMidYMid meet" class="css-18azjue" id="cbhfdega" width="338.81368326464417"  height="85.43961921203513" ><defs id="SvgjsDefs5339"></defs><g id="SvgjsG5340" featurekey="symbolFeature-0" transform="matrix(1.4730968829661228,0,0,1.4730968829661228,353.1967810354956,48.759510197829854)" fill="#3CB9CC"><path xmlns="http://www.w3.org/2000/svg" d="M-200.2-0.1c-2.2-3.9-9.7-5.1-10.7-5.3c-3.5-1.8-3.5-5.1-3.4-6c0.2-0.2,0.3-0.4,0.5-0.6c1.4-1.7,1.5-3.6,1.5-4.6  c0.6-0.3,1-0.9,1.5-1.8c0.7-1.5,0.1-2.8-0.5-3.4c1.3-5.1,0.4-7.5,0.2-7.9c-0.8-2-2.6-2.2-3.4-2.2c-0.1,0-0.1,0-0.2,0  c-0.6-0.6-1.5-1-1.6-1l-0.1,0c-0.8-0.2-1.6-0.2-2.4-0.2c-5.9,0-8.6,4.4-8.7,4.6c-1.9,2.8-0.6,5.9,0,7c-0.5,0.7-0.6,1.5-0.5,2.3  c0.2,1.3,1.2,2.2,1.6,2.6c0,0.4,0.2,1.2,0.3,2.4c0.1,0.8,0.5,1.6,1.2,2.6l-0.1,0c0.2,2.1,0,4.6-0.6,5l-9.5,3.6  c-0.1,0-5.3,1.7-4.6,8.4c0,0.4,0.5,8.9,1.6,13.4c0.4,1.8,1.4,6.1,3.4,6.1c0.3,0,8.5-0.1,14.5-5.7l-0.2-0.2l0.7,0.5l0.1,0.1  c7.8,4.1,15.5,5,15.8,5l0.4,0l0.2-0.3c2.1-2.9,3-8.3,3.7-12.6C-198.4,3-199.8,0.4-200.2-0.1z M-226.5-27.9c0.1-0.2,2.5-4,7.6-4  c0.7,0,1.4,0.1,2.1,0.2c0.4,0.2,1.1,0.6,1.3,0.9l0.2,0.3l0.4-0.1c0,0,0.1,0,0.3,0c0.7,0,1.7,0.3,2.2,1.4l0,0.1c0,0,0.8,1.6,0.1,5.3  c-0.1-0.5-0.2-1-0.3-1.6c-0.2-2.4-2.2-3.3-2.3-3.4l-0.5-0.2l-0.3,0.5c0,0-2.2,4.1-5,4.5c-2.8,0.4-4.4-1.1-4.5-1.2l-0.7-0.6l-1.1,2.6  C-227.3-24.3-227.7-26.2-226.5-27.9z M-225.3-17.5l-0.2-0.2c0,0-1.1-0.8-1.3-1.9c-0.1-0.6,0.1-1.1,0.5-1.7l0.3-0.4l-0.1-0.1l0.9-2  c0.9,0.6,2.5,1.3,4.8,1c2.7-0.4,4.8-3.3,5.6-4.6c0.4,0.3,1,1,1.1,2c0.1,1.8,0.8,3.3,1,3.8l0,0.2l0.3,0.3c0,0,1.1,0.9,0.5,2.2  c-0.5,1-0.8,1.2-1.1,1.3l-0.5,0.1l0.1,0.6c0,0,0.2,2.3-1.2,4.1c-1.7,2.1-2.6,3-3.8,3l0,0.6l0-0.6l-1.5,0c-0.4-0.1-1.6-0.4-2-0.9  c-2.2-2.1-2.6-3.4-2.7-4c-0.3-1.7-0.4-2.6-0.4-2.6L-225.3-17.5z M-225-5.7c1.1-0.7,1.3-3,1.3-4.6c0.2,0.2,0.4,0.4,0.6,0.6  c0.8,0.8,2.6,1.2,2.7,1.2l1.7,0c1.2,0,2.2-0.6,3.1-1.6c0.2,1.3,0.7,3,2.3,4.5l-1.7,0.6c-4.5,1.4-8.7,0.1-10.5-0.6l0.4-0.1L-225-5.7z   M-234.8,23.4c-0.6,0-1.6-2.5-2.1-5.1c-0.2-0.9-0.4-2-0.6-3.2c1.3,0,3.9-0.3,6.6-1.3l4.6,0.4l5.1,3.9  C-226.9,23.3-234.7,23.4-234.8,23.4z M-204.1,23c-1.6-0.2-8.3-1.4-14.9-4.8l-6.8-5.3l-4.1-0.4c0.5-0.8,1.3-1.3,2.9-1.7  c0.9-0.2,2.2-0.1,3.2,0c0.4,0,0.8,0.1,1.1,0.1c0.3,0,0.5,0.1,0.7,0.2l6.5,3.1l7.8,2l-0.1-0.9c0,0-0.1-1.2-0.2-2.6  c1.2,0.7,3.2,1.5,6,1.5c0.2,0,0.5,0,0.8,0C-201.9,17.3-202.7,20.8-204.1,23z M-200.9,11.3c-0.1,0.5-0.1,1-0.2,1.5  c-3.9,0.3-6.3-1.3-7-1.8c-0.1-1.4-0.1-2.7,0-3.7l-1.3-0.1c-0.1,2,0.1,5.6,0.2,7.2L-215,13l-6.4-3.1c-0.4-0.2-0.8-0.3-1.3-0.3  c-0.3,0-0.6,0-1-0.1c-1.1-0.1-2.5-0.2-3.6,0c-0.5,0.1-1,0.3-1.4,0.4c-0.1-1.7-0.5-3.1-0.6-3.1l-1.2,0.4c0,0,0.5,1.6,0.5,3.4  c-0.6,0.5-1.1,1.1-1.4,1.9c-2.7,1-5.2,1.2-6.3,1.2c-0.5-4.1-0.8-8.6-0.8-8.7c-0.6-5.6,3.5-7,3.7-7.1l7.8-2.9l-0.1,0.1  c0.2,0.1,3.4,1.8,7.8,1.8c1.4,0,3-0.2,4.6-0.7l2.6-0.9c0.2,0.1,0.4,0.3,0.7,0.4l0.2,0.1c0.1,0,7.9,1.2,9.9,4.7l0,0.1  C-201.2,0.7-199.7,2.9-200.9,11.3z" fill="#3CB9CC"></path></g><g id="SvgjsG5341" featurekey="sloganFeature-0" transform="matrix(0.9759377447628526,0,0,0.9759377447628526,78.47753635962763,46.95373015293547)" fill="#3CB9CC"><path d="M2.18 7.359999999999999 l6.04 0 c0.42 0 0.62 0.34 0.62 0.68 s-0.2 0.66 -0.62 0.66 l-2.28 0 l0 10.06 c0 0.42 -0.34 0.64 -0.68 0.64 s-0.66 -0.22 -0.66 -0.64 l0 -10.06 l-2.42 0 c-0.42 0 -0.62 -0.32 -0.62 -0.66 s0.2 -0.68 0.62 -0.68 z M13.080000000000002 18.78 l0 -10.78 c0 -0.42 0.32 -0.64 0.64 -0.64 s0.66 0.22 0.66 0.64 l0 10.78 c0 0.86 -1.3 0.86 -1.3 0 z M27.98 18.76 l0 -8.92 l-3.18 9 c-0.18 0.5 -0.84 0.62 -1.04 0 l-3.08 -9 l0 8.92 c0 0.42 -0.32 0.64 -0.66 0.64 s-0.68 -0.22 -0.68 -0.64 l0 -10.74 c0 -0.38 0.28 -0.66 0.68 -0.66 l0.64 0 c0.44 0 0.68 0.32 0.78 0.62 c0.96 2.86 1.84 5.4 2.82 8.28 l2.9 -8.34 c0.1 -0.28 0.28 -0.56 0.7 -0.56 l0.8 0 c0.58 0 0.66 0.32 0.66 0.64 l0 10.76 c0 0.42 -0.34 0.64 -0.68 0.64 s-0.66 -0.22 -0.66 -0.64 z  M34.32 18.7 l0 -10.64 c0 -0.46 0.36 -0.7 0.7 -0.7 l4.6 0 c0.44 0 0.66 0.32 0.66 0.66 s-0.22 0.68 -0.66 0.68 l-3.96 0 l0 3.88 l3.14 0 c0.46 0 0.68 0.32 0.68 0.66 s-0.24 0.7 -0.68 0.7 l-3.14 0 l0 4.14 l3.96 0 c0.42 0 0.64 0.34 0.64 0.66 c0 0.34 -0.22 0.66 -0.64 0.66 l-4.6 0 c-0.34 0 -0.7 -0.12 -0.7 -0.7 z M52.32000000000001 18.72 l0 -10.72 c0 -0.32 0.16 -0.64 0.6 -0.64 l2.62 0 c1.98 0 3.06 0.72 3.06 2.72 c0 0.8 -0.1 1.58 -0.6 2.12 c1.14 0.8 1.34 2.18 1.34 3.58 c0 2.46 -1.34 3.62 -3.64 3.62 l-2.68 0 c-0.34 0 -0.7 -0.12 -0.7 -0.68 z M53.66000000000001 18.08 l1.74 0 c1.66 0 2.58 -0.68 2.58 -2.3 c0 -1.66 -0.42 -2.78 -2.04 -2.78 l-2.28 0 l0 5.08 z M57.28000000000001 10.08 c0 -1.2 -0.84 -1.38 -1.74 -1.38 l-1.88 0 l0 2.96 l1.84 0 c1.26 0 1.78 -0.36 1.78 -1.58 z M69.72000000000001 18.86 l-0.78 -2.54 l-3.72 0 l-0.74 2.5 c-0.26 0.86 -1.58 0.6 -1.3 -0.28 c1.04 -3.5 2.06 -7.06 3.08 -10.6 c0.12 -0.38 0.44 -0.58 0.76 -0.58 c0.3 0 0.62 0.2 0.74 0.58 l3.18 10.6 c0.22 0.76 -0.96 1.18 -1.22 0.32 z M67.06 10.06 l-1.44 4.92 l2.94 0 c-0.5 -1.68 -0.96 -3.12 -1.5 -4.92 z M79.02000000000001 7.32 c1.82 0 3.76 0.7 3.76 2.76 c0 0.48 -0.32 0.7 -0.66 0.7 s-0.7 -0.24 -0.7 -0.7 c0 -0.16 -0.1 -1.46 -2.4 -1.46 c-1.82 0 -2.62 0.72 -2.62 2.44 l0 4.82 c0 1.74 0.98 2.28 2.62 2.28 c1.66 0 2.58 -0.68 2.58 -2.3 c0 -0.46 0.34 -0.68 0.66 -0.68 c0.34 0 0.66 0.22 0.66 0.68 c0 2.7 -1.5 3.6 -3.9 3.6 c-2.6 0 -3.92 -0.96 -3.92 -3.58 l0 -4.82 c0 -2.84 1.42 -3.74 3.92 -3.74 z M87.62 18.76 l0 -10.76 c0 -0.42 0.32 -0.62 0.66 -0.62 s0.68 0.2 0.68 0.62 l0 4.58 l4.54 0 l0 -4.58 c0 -0.42 0.32 -0.64 0.64 -0.64 s0.66 0.22 0.66 0.64 l0 10.76 c0 0.42 -0.34 0.64 -0.66 0.64 s-0.64 -0.22 -0.64 -0.64 l0 -4.82 l-4.54 0 l0 4.82 c0 0.42 -0.34 0.64 -0.68 0.64 s-0.66 -0.22 -0.66 -0.64 z M105.76 18.86 l-0.78 -2.54 l-3.72 0 l-0.74 2.5 c-0.26 0.86 -1.58 0.6 -1.3 -0.28 c1.04 -3.5 2.06 -7.06 3.08 -10.6 c0.12 -0.38 0.44 -0.58 0.76 -0.58 c0.3 0 0.62 0.2 0.74 0.58 l3.18 10.6 c0.22 0.76 -0.96 1.18 -1.22 0.32 z M103.1 10.06 l-1.44 4.92 l2.94 0 c-0.5 -1.68 -0.96 -3.12 -1.5 -4.92 z M111.22 15.86 l0 -4.96 c0 -2.4 1.24 -3.68 3.64 -3.68 l0.52 0 c2.38 0 3.64 1.28 3.64 3.68 l0 4.96 c0 2.2 -1.46 3.64 -3.64 3.64 l-0.52 0 c-2.22 0 -3.64 -1.46 -3.64 -3.64 z M114.86 18.16 l0.52 0 c1.44 0 2.3 -0.9 2.3 -2.3 l0 -4.96 c0 -1.56 -0.76 -2.36 -2.3 -2.36 l-0.52 0 c-1.52 0 -2.36 0.82 -2.36 2.36 l0 4.96 c0 1.46 0.92 2.3 2.36 2.3 z M131.26 18.7 l0 -10.64 c0 -0.46 0.36 -0.7 0.7 -0.7 l4.6 0 c0.44 0 0.66 0.32 0.66 0.66 s-0.22 0.68 -0.66 0.68 l-3.96 0 l0 3.88 l3.14 0 c0.46 0 0.68 0.32 0.68 0.66 s-0.24 0.7 -0.68 0.7 l-3.14 0 l0 4.14 l3.96 0 c0.42 0 0.64 0.34 0.64 0.66 c0 0.34 -0.22 0.66 -0.64 0.66 l-4.6 0 c-0.34 0 -0.7 -0.12 -0.7 -0.7 z M147.36 18.98 l-2.4 -4.66 l-2.42 4.6 c-0.56 1.06 -1.64 0.3 -1.24 -0.48 l2.88 -5.56 l-2.34 -4.5 c-0.46 -0.9 0.82 -1.4 1.2 -0.66 l1.92 3.64 l1.88 -3.6 c0.44 -0.86 1.62 -0.28 1.2 0.52 l-2.34 4.56 l2.9 5.64 c0.42 0.82 -0.76 1.4 -1.24 0.5 z M159.68 10.28 l0 2.5 c0 2.38 -1.24 3.14 -3.34 3.14 l-1.86 0 l0 2.84 c0 0.42 -0.34 0.64 -0.66 0.64 c-0.34 0 -0.66 -0.22 -0.66 -0.64 l0 -10.74 c0 -0.38 0.32 -0.66 0.66 -0.66 l2.7 0 c1.1 0 3.16 0.22 3.16 2.92 z M156.51999999999998 8.7 l-2.04 0 l0 5.86 l1.86 0 c0.98 0 2.04 -0.24 2.02 -1.8 l-0.02 -2.48 c0 -0.48 -0.08 -1.58 -1.82 -1.58 z M163.78 18.7 l0 -10.64 c0 -0.46 0.36 -0.7 0.7 -0.7 l4.6 0 c0.44 0 0.66 0.32 0.66 0.66 s-0.22 0.68 -0.66 0.68 l-3.96 0 l0 3.88 l3.14 0 c0.46 0 0.68 0.32 0.68 0.66 s-0.24 0.7 -0.68 0.7 l-3.14 0 l0 4.14 l3.96 0 c0.42 0 0.64 0.34 0.64 0.66 c0 0.34 -0.22 0.66 -0.64 0.66 l-4.6 0 c-0.34 0 -0.7 -0.12 -0.7 -0.7 z M175.68 15.9 l0 2.86 c0 0.44 -0.34 0.64 -0.66 0.64 c-0.34 0 -0.66 -0.2 -0.66 -0.64 l0 -10.74 c0 -0.4 0.22 -0.66 0.66 -0.66 l2.7 0 c0.76 0 3.16 0.22 3.16 2.92 l0 2.5 c0 1.52 -0.56 2.48 -1.84 2.9 l1.36 2.74 c0.28 0.54 -0.14 0.98 -0.58 0.98 c-0.24 0 -0.54 -0.16 -0.7 -0.5 l-1.46 -3 l-1.98 0 z M179.56 12.780000000000001 l0 -2.5 c0 -0.48 -0.18 -1.58 -1.84 -1.58 l-2.04 0 l0 5.86 l1.86 0 c0.98 0 2.02 -0.22 2.02 -1.78 z M185.38000000000002 7.359999999999999 l6.04 0 c0.42 0 0.62 0.34 0.62 0.68 s-0.2 0.66 -0.62 0.66 l-2.28 0 l0 10.06 c0 0.42 -0.34 0.64 -0.68 0.64 s-0.66 -0.22 -0.66 -0.64 l0 -10.06 l-2.42 0 c-0.42 0 -0.62 -0.32 -0.62 -0.66 s0.2 -0.68 0.62 -0.68 z M203.72 18.72 l0 -10.72 c0 -0.32 0.16 -0.64 0.6 -0.64 l2.62 0 c1.98 0 3.06 0.72 3.06 2.72 c0 0.8 -0.1 1.58 -0.6 2.12 c1.14 0.8 1.34 2.18 1.34 3.58 c0 2.46 -1.34 3.62 -3.64 3.62 l-2.68 0 c-0.34 0 -0.7 -0.12 -0.7 -0.68 z M205.06 18.08 l1.74 0 c1.66 0 2.58 -0.68 2.58 -2.3 c0 -1.66 -0.42 -2.78 -2.04 -2.78 l-2.28 0 l0 5.08 z M208.68 10.08 c0 -1.2 -0.84 -1.38 -1.74 -1.38 l-1.88 0 l0 2.96 l1.84 0 c1.26 0 1.78 -0.36 1.78 -1.58 z M215.16 15.86 l0 -7.86 c0 -0.42 0.34 -0.64 0.66 -0.64 c0.34 0 0.66 0.22 0.66 0.64 l0 7.86 c0 1.44 0.98 2.3 2.34 2.3 l0.5 0 c1.4 0 2.36 -0.98 2.36 -2.3 l0 -7.86 c0 -0.42 0.32 -0.64 0.66 -0.64 c0.32 0 0.66 0.22 0.66 0.64 l0 7.86 c0 2.06 -1.46 3.64 -3.68 3.64 l-0.5 0 c-2.22 0 -3.66 -1.54 -3.66 -3.64 z M227.85999999999999 18.76 l0 -10.76 c0 -0.42 0.32 -0.64 0.64 -0.64 s0.66 0.22 0.66 0.64 l0 10.06 l3.98 0 c0.44 0 0.68 0.34 0.68 0.68 s-0.24 0.66 -0.68 0.66 l-4.62 0 c-0.4 0 -0.66 -0.32 -0.66 -0.64 z M243.64 18.86 l-0.78 -2.54 l-3.72 0 l-0.74 2.5 c-0.26 0.86 -1.58 0.6 -1.3 -0.28 c1.04 -3.5 2.06 -7.06 3.08 -10.6 c0.12 -0.38 0.44 -0.58 0.76 -0.58 c0.3 0 0.62 0.2 0.74 0.58 l3.18 10.6 c0.22 0.76 -0.96 1.18 -1.22 0.32 z M240.98 10.06 l-1.44 4.92 l2.94 0 c-0.5 -1.68 -0.96 -3.12 -1.5 -4.92 z M249.1 15.86 l0 -4.96 c0 -2.4 1.24 -3.68 3.64 -3.68 l0.52 0 c2.38 0 3.64 1.28 3.64 3.68 l0 4.96 c0 2.2 -1.46 3.64 -3.64 3.64 l-0.52 0 c-2.22 0 -3.64 -1.46 -3.64 -3.64 z M252.73999999999998 18.16 l0.52 0 c1.44 0 2.3 -0.9 2.3 -2.3 l0 -4.96 c0 -1.56 -0.76 -2.36 -2.3 -2.36 l-0.52 0 c-1.52 0 -2.36 0.82 -2.36 2.36 l0 4.96 c0 1.46 0.92 2.3 2.36 2.3 z" fill="#3CB9CC"></path></g><g id="SvgjsG5342" featurekey="nameLeftFeature-0" transform="matrix(1.9053282084945984,0,0,1.9053282084945984,78.09467224577105,5.862463639073786)" fill="#00043C"><path d="M4.24 20 c-0.14 0 -0.24 -0.12 -0.24 -0.26 l0 -9.44 l-2.74 0 c-0.14 0 -0.26 -0.1 -0.26 -0.24 l0 -2.3 c0 -0.14 0.12 -0.26 0.26 -0.26 l8.58 0 c0.16 0 0.26 0.12 0.26 0.26 l0 2.3 c0 0.14 -0.1 0.24 -0.26 0.24 l-2.74 0 l0 9.44 c0 0.14 -0.12 0.26 -0.26 0.26 l-2.6 0 z M12.36 20 c-0.14 0 -0.26 -0.12 -0.26 -0.26 l0 -11.98 c0 -0.14 0.12 -0.26 0.26 -0.26 l2.6 0 c0.14 0 0.26 0.12 0.26 0.26 l0 11.98 c0 0.14 -0.12 0.26 -0.26 0.26 l-2.6 0 z M17.48 20 c-0.14 0 -0.26 -0.12 -0.26 -0.26 l0 -11.98 c0 -0.14 0.12 -0.26 0.26 -0.26 l2.88 0 c0.1 0 0.2 0.06 0.24 0.14 l3 7.4 l2.98 -7.4 c0.04 -0.08 0.14 -0.14 0.24 -0.14 l2.88 0 c0.14 0 0.26 0.12 0.26 0.26 l0 11.98 c0 0.14 -0.12 0.26 -0.26 0.26 l-2.34 0 c-0.14 0 -0.26 -0.12 -0.26 -0.26 l0 -6.44 l-2.44 6.2 c-0.04 0.08 -0.14 0.14 -0.22 0.14 l-1.68 0 c-0.1 0 -0.2 -0.06 -0.24 -0.14 l-2.46 -6.2 l0 6.44 c0 0.14 -0.12 0.26 -0.26 0.26 l-2.32 0 z M31.96 20 l0 -11.98 c0 -0.5 0.1 -0.6 0.26 -0.6 l8.76 0 c0.14 0 0.26 0.1 0.26 0.24 l0 2.26 c0 0.14 -0.12 0.26 -0.26 0.26 l-5.92 0 l0 2.08 l3.74 0 c0.14 0 0.26 0.12 0.26 0.26 l0 2.24 c0 0.14 -0.12 0.26 -0.26 0.26 l-3.74 0 l0 2.14 l5.9 0 c0.14 0 0.26 0.12 0.26 0.26 l0 2.24 c0 0.14 -0.12 0.26 -0.26 0.26 l-8.74 0 c-0.16 0 -0.26 -0.12 -0.26 0.08 z M43.5 20 c-0.14 0 -0.26 -0.12 -0.26 -0.26 l0 -11.98 c0 -0.14 0.12 -0.26 0.26 -0.26 l2.6 0 c0.14 0 0.26 0.12 0.26 0.26 l0 9.36 l4.5 0 c0.14 0 0.26 0.12 0.26 0.26 l0 2.36 c0 0.14 -0.12 0.26 -0.26 0.26 l-7.36 0 z M56.02 20 c-0.14 0 -0.24 -0.12 -0.24 -0.26 l0 -4.76 l-4.24 -7.1 c-0.04 -0.08 -0.04 -0.18 0.02 -0.26 c0.04 -0.08 0.12 -0.12 0.22 -0.12 l2.6 0 c0.1 0 0.18 0.04 0.22 0.14 l2.72 4.44 l2.66 -4.44 c0.04 -0.08 0.12 -0.14 0.22 -0.14 l2.62 0 c0.08 0 0.18 0.04 0.22 0.12 s0.04 0.18 0 0.26 l-4.16 7.02 l0 4.84 c0 0.14 -0.12 0.26 -0.26 0.26 l-2.6 0 z" fill="#00043C"></path></g><g id="SvgjsG5343" featurekey="nameRightFeature-0" transform="matrix(1.5849592649251085,0,0,1.5849592649251085,202,12.265400873083692)" fill="#00043C"><path d="M3.5 4.880000000000001 l7.42 0 c0.8 0 1.46 0.66 1.46 1.46 s-0.62 1.48 -1.42 1.48 l-7.46 0 c-0.3 0 -0.56 0.24 -0.56 0.56 c0 0.3 0.26 0.56 0.56 0.56 c0.34 0 0.62 0.26 0.62 0.6 s-0.28 0.62 -0.62 0.62 c-0.98 0 -1.76 -0.8 -1.76 -1.78 s0.78 -1.78 1.76 -1.78 l7.42 0 c0.14 0 0.24 -0.12 0.24 -0.26 s-0.1 -0.24 -0.24 -0.24 l-7.42 0 c-1.26 0 -2.28 1.02 -2.28 2.28 s1.02 2.28 2.28 2.28 l5.38 0 c0.98 0 1.78 0.8 1.78 1.8 c0 0.98 -0.8 1.76 -1.78 1.76 l-5.38 0 c-1.26 0 -2.28 1.02 -2.28 2.28 s1.02 2.28 2.28 2.28 l8.26 0 c0.34 0 0.62 0.28 0.62 0.62 s-0.28 0.6 -0.62 0.6 l-8.26 0 c-1.94 0 -3.5 -1.56 -3.5 -3.5 c0 -1.92 1.56 -3.5 3.5 -3.5 l5.38 0 c0.32 0 0.56 -0.24 0.56 -0.54 c0 -0.34 -0.24 -0.58 -0.56 -0.58 l-5.38 0 c-1.92 0 -3.5 -1.58 -3.5 -3.5 c0 -1.94 1.58 -3.5 3.5 -3.5 z M3.5 14.74 l5.38 0 c0.34 0 0.62 0.26 0.62 0.6 s-0.28 0.62 -0.62 0.62 l-5.38 0 c-0.3 0 -0.56 0.24 -0.56 0.54 c0 0.32 0.26 0.56 0.56 0.56 c0.34 0 0.6 0.28 0.6 0.62 c0 0.32 -0.26 0.6 -0.6 0.6 c-0.98 0 -1.78 -0.8 -1.78 -1.78 s0.8 -1.76 1.78 -1.76 z M28.68 5.300000000000001 c0.58 0.58 0.58 1.5 0 2.08 l-5.06 5.06 l5.06 5.06 c0.62 0.58 0.58 1.52 0 2.06 c-0.54 0.54 -1.5 0.62 -2.04 0.04 l-6.3 -6.3 l-5.06 5.06 c-0.1 0.1 -0.1 0.24 0 0.34 s0.24 0.1 0.34 0 l4.3 -4.28 c0.24 -0.24 0.62 -0.24 0.86 0 s0.24 0.62 0 0.86 l-4.32 4.32 c-0.58 0.54 -1.5 0.54 -2.04 -0.04 c-0.58 -0.54 -0.58 -1.48 0 -2.06 l5.06 -5.06 l-5.06 -5.06 c-0.58 -0.58 -0.58 -1.5 0 -2.08 c0.54 -0.56 1.52 -0.56 2.06 0 l4.24 4.24 c0.24 0.24 0.24 0.62 0 0.86 s-0.62 0.24 -0.86 0 l-4.24 -4.24 c-0.1 -0.1 -0.26 -0.1 -0.34 0 c-0.1 0.1 -0.1 0.26 0 0.36 l5.06 5.06 l6.28 -6.28 c0.54 -0.56 1.52 -0.56 2.06 0 z M27.84 6.16 c-0.1 -0.1 -0.26 -0.1 -0.38 0.02 l-6.26 6.26 l6.26 6.26 c0.1 0.1 0.26 0.1 0.36 0 c0.08 -0.08 0.1 -0.24 0 -0.34 l-5.5 -5.48 c-0.24 -0.24 -0.24 -0.62 0 -0.86 l5.48 -5.48 c0.14 -0.14 0.14 -0.28 0.04 -0.38 z M31.340000000000003 4.880000000000001 l7.28 0 c2.48 0.02 4.5 2.04 4.5 4.52 s-2.04 4.52 -4.52 4.52 l-3.36 0 c-0.86 0 -1.56 0.7 -1.56 1.58 l0 3.9 c0 0.32 -0.28 0.6 -0.62 0.6 s-0.6 -0.28 -0.6 -0.6 l0 -3.9 c0 -1.54 1.24 -2.8 2.78 -2.8 l3.36 0 c1.82 0 3.3 -1.48 3.3 -3.3 s-1.48 -3.3 -3.32 -3.3 l-6.62 0 l0 3.3 c0 0.34 -0.28 0.6 -0.62 0.6 c-0.32 0 -0.6 -0.26 -0.6 -0.6 l0 -3.92 c0 -0.32 0.28 -0.6 0.6 -0.6 z M38.6 6.6 c1.54 0 2.8 1.26 2.8 2.8 s-1.26 2.78 -2.8 2.78 l-3.34 0 c-1.82 0 -3.3 1.48 -3.3 3.3 l0 3.92 c0 0.32 -0.28 0.6 -0.62 0.6 c-0.32 0 -0.6 -0.28 -0.6 -0.6 l0 -3.92 c0 -2.5 2.02 -4.52 4.52 -4.52 l3.36 0 c0.86 0 1.56 -0.7 1.56 -1.56 c0 -0.88 -0.7 -1.58 -1.58 -1.58 c-0.32 0 -0.6 -0.26 -0.6 -0.6 s0.28 -0.62 0.6 -0.62 z M47.82 4.880000000000001 l7.42 0 c0.8 0 1.46 0.66 1.46 1.46 s-0.62 1.48 -1.42 1.48 l-7.46 0 c-0.3 0 -0.56 0.24 -0.56 0.56 c0 0.3 0.26 0.56 0.56 0.56 c0.34 0 0.62 0.26 0.62 0.6 s-0.28 0.62 -0.62 0.62 c-0.98 0 -1.76 -0.8 -1.76 -1.78 s0.78 -1.78 1.76 -1.78 l7.42 0 c0.14 0 0.24 -0.12 0.24 -0.26 s-0.1 -0.24 -0.24 -0.24 l-7.42 0 c-1.26 0 -2.28 1.02 -2.28 2.28 s1.02 2.28 2.28 2.28 l5.38 0 c0.98 0 1.78 0.8 1.78 1.8 c0 0.98 -0.8 1.76 -1.78 1.76 l-5.38 0 c-1.26 0 -2.28 1.02 -2.28 2.28 s1.02 2.28 2.28 2.28 l8.26 0 c0.34 0 0.62 0.28 0.62 0.62 s-0.28 0.6 -0.62 0.6 l-8.26 0 c-1.94 0 -3.5 -1.56 -3.5 -3.5 c0 -1.92 1.56 -3.5 3.5 -3.5 l5.38 0 c0.32 0 0.56 -0.24 0.56 -0.54 c0 -0.34 -0.24 -0.58 -0.56 -0.58 l-5.38 0 c-1.92 0 -3.5 -1.58 -3.5 -3.5 c0 -1.94 1.58 -3.5 3.5 -3.5 z M47.82 14.74 l5.38 0 c0.34 0 0.62 0.26 0.62 0.6 s-0.28 0.62 -0.62 0.62 l-5.38 0 c-0.3 0 -0.56 0.24 -0.56 0.54 c0 0.32 0.26 0.56 0.56 0.56 c0.34 0 0.6 0.28 0.6 0.62 c0 0.32 -0.26 0.6 -0.6 0.6 c-0.98 0 -1.78 -0.8 -1.78 -1.78 s0.8 -1.76 1.78 -1.76 z M58.9 4.880000000000001 l7.28 0 c2.48 0.02 4.48 2.06 4.48 4.54 c0 2.32 -1.78 4.24 -4.04 4.48 l3.62 3.6 c0.54 0.54 0.54 1.54 0 2.08 s-1.48 0.58 -2.04 0.02 c-0.52 -0.54 -2.52 -2.52 -2.52 -2.52 c-0.24 -0.24 -0.24 -0.62 0 -0.86 s0.62 -0.24 0.86 0 l2.48 2.48 c0.1 0.1 0.26 0.12 0.36 0.02 s0.12 -0.24 0 -0.36 l-4.64 -4.62 c-0.12 -0.12 -0.18 -0.26 -0.18 -0.42 c0 -0.34 0.28 -0.62 0.62 -0.62 l0.96 0 c1.82 0 3.32 -1.48 3.32 -3.3 s-1.5 -3.3 -3.32 -3.3 l-6.62 0 l0 3.3 c0 0.34 -0.28 0.6 -0.62 0.6 s-0.6 -0.26 -0.6 -0.6 l0 -3.92 c0 -0.32 0.26 -0.6 0.6 -0.6 z M66.16 6.6 c1.54 0 2.8 1.26 2.8 2.8 s-1.26 2.78 -2.8 2.78 l-3.34 0 c-1.82 0 -3.3 1.48 -3.3 3.3 l0 3.92 c0 0.32 -0.28 0.6 -0.62 0.6 s-0.6 -0.28 -0.6 -0.6 l0 -3.92 c0 -2.5 2.02 -4.52 4.52 -4.52 l3.34 0 c0.88 0 1.58 -0.7 1.58 -1.56 c0 -0.88 -0.7 -1.58 -1.58 -1.58 c-0.34 0 -0.6 -0.26 -0.6 -0.6 s0.26 -0.62 0.6 -0.62 z M72.85999999999999 4.880000000000001 l12.86 0 c0.32 0 0.6 0.28 0.6 0.6 c0 0.34 -0.28 0.62 -0.6 0.62 l-12.86 0 c-0.32 0 -0.6 -0.28 -0.6 -0.62 c0 -0.32 0.28 -0.6 0.6 -0.6 z M72.85999999999999 6.6 l4.4 0 c0.98 0 1.78 0.8 1.78 1.78 l0 11.02 c0 0.32 -0.28 0.6 -0.62 0.6 c-0.32 0 -0.6 -0.28 -0.6 -0.6 l0 -11.02 c0 -0.3 -0.26 -0.56 -0.56 -0.56 l-4.4 0 c-0.32 0 -0.6 -0.26 -0.6 -0.6 s0.28 -0.62 0.6 -0.62 z M81.32 6.6 l4.4 0 c0.32 0 0.6 0.28 0.6 0.62 s-0.28 0.6 -0.6 0.6 l-4.4 0 c-0.3 0 -0.56 0.26 -0.56 0.56 l0 11.02 c0 0.32 -0.26 0.6 -0.6 0.6 s-0.62 -0.28 -0.62 -0.6 l0 -11.02 c0 -0.98 0.8 -1.78 1.78 -1.78 z" fill="#00043C"></path></g></svg>