<svg xmlns:xlink="http://www.w3.org/1999/xlink" xmlns="http://www.w3.org/2000/svg" viewBox="0 0 370.20000000000005 70.00000000000001" preserveAspectRatio="xMidYMid meet" class="css-18azjue" id="hgecgagb" width="370.20000000000005"  height="70.00000000000001" ><defs id="SvgjsDefs14626"></defs><g id="SvgjsG14627" featurekey="symbolFeature-0" transform="matrix(1.2068965517241381,0,0,1.2068965517241381,-3.6206896551724146,-3.6206896551724146)" fill="#FF0000"><g xmlns="http://www.w3.org/2000/svg" fill="#FF0000"><path d="M59,19.708c0,1.032-0.574,1.961-1.497,2.423l-3.901,1.949C51.997,24.884,51,26.498,51,28.292V31h2v-2.708   c0-1.032,0.574-1.961,1.497-2.423l3.901-1.949C60.003,23.116,61,21.502,61,19.708C61,17.112,58.888,15,56.292,15H37v2h19.292   C57.785,17,59,18.215,59,19.708z" fill="#FF0000"></path><path d="M51,37h-1c-3.859,0-7,3.141-7,7v1h6v-1c0-1.302,0.839-2.402,2-2.816V37z" fill="#FF0000"></path><path d="M32,13.954c0,0.99-0.492,1.909-1.315,2.458l-0.513,0.342C29.438,17.243,29,18.062,29,18.943   c0,0.919,0.489,1.784,1.277,2.257l2.75,1.65C34.27,20.858,35,18.515,35,16c0-1.034-0.134-2.035-0.363-3h-1.682   C32.428,13,32,13.428,32,13.954z" fill="#FF0000"></path><path d="M14.105,13.553C14.894,11.979,16.477,11,18.236,11h0.927C19.625,11,20,10.625,20,10.164C20,7.84,21.835,6,24.09,6   C24.592,6,25,5.592,25,5.09V3.363C24.035,3.134,23.034,3,22,3C15.17,3,9.565,8.299,9.051,15h2.713   C12.762,15,13.659,14.445,14.105,13.553z" fill="#FF0000"></path><path d="M13.124,19c0.454,0,0.896-0.085,1.316-0.254l0.953-0.381c2.32-0.928,4.995-0.182,6.497,1.822   C22.606,21.142,23,22.323,23,23.516v0.903c0,0.515,0.328,0.97,0.816,1.133c1.238,0.413,2.081,1.531,2.167,2.818   c2.299-0.742,4.315-2.11,5.857-3.9l-2.591-1.555C27.862,22.084,27,20.562,27,18.943c0-1.552,0.771-2.992,2.062-3.854l0.513-0.342   C29.842,14.57,30,14.274,30,13.954C30,12.325,31.325,11,32.954,11h1.043C32.678,7.847,30.153,5.322,27,4.003V5.09   C27,6.694,25.694,8,24.09,8C22.938,8,22,8.942,22,10.102C22,11.728,20.728,13,19.163,13h-0.927c-0.998,0-1.896,0.555-2.342,1.447   C15.106,16.021,13.523,17,11.764,17H9.051c0.052,0.683,0.158,1.35,0.313,2H13.124z" fill="#FF0000"></path><path d="M20.291,21.387c-0.961-1.28-2.667-1.759-4.155-1.164l-0.952,0.381C14.527,20.866,13.834,21,13.124,21h-3.121   c1.963,4.693,6.6,8,11.997,8c0.682,0,1.346-0.069,2-0.17v-0.249c0-0.515-0.328-0.97-0.816-1.133C21.878,27.013,21,25.795,21,24.419   v-0.903C21,22.753,20.748,21.997,20.291,21.387z" fill="#FF0000"></path><path d="M54,34c0-0.552-0.448-1-1-1h-2c-0.552,0-1,0.448-1,1v1h4V34z" fill="#FF0000"></path><path d="M52,49c0.552,0,1-0.448,1-1v-4c0-0.552-0.448-1-1-1s-1,0.448-1,1v4C51,48.552,51.448,49,52,49z" fill="#FF0000"></path><path d="M54,37h-1v4.184c1.161,0.414,2,1.514,2,2.816v1h6v-1C61,40.141,57.859,37,54,37z" fill="#FF0000"></path><path d="M55,48c0,1.654-1.346,3-3,3s-3-1.346-3-3v-1h-6v5c0,3.335,1.828,6.246,4.53,7.801C48.356,58.129,50.068,57,52,57   c1.931,0,3.643,1.13,4.47,2.801C59.172,58.246,61,55.335,61,52v-5h-6V48z" fill="#FF0000"></path><path d="M40,31H4c-0.552,0-1,0.448-1,1v10c0,0.552,0.448,1,1,1h36c0.552,0,1-0.448,1-1V32C41,31.448,40.552,31,40,31z M13.867,41   h-2.402L10,38.803L8.535,41H6.133L5.01,33.142l1.98-0.283l0.806,5.645L10,35.197l2.204,3.306l0.806-5.645l1.98,0.283L13.867,41z    M25.867,41h-2.402L22,38.803L20.535,41h-2.402l-1.123-7.858l1.98-0.283l0.806,5.645L22,35.197l2.204,3.306l0.806-5.645l1.98,0.283   L25.867,41z M37.867,41h-2.402L34,38.803L32.535,41h-2.402l-1.123-7.858l1.98-0.283l0.806,5.645L34,35.197l2.204,3.306l0.806-5.645   l1.98,0.283L37.867,41z" fill="#FF0000"></path><path d="M52,59c-1.13,0-2.135,0.643-2.644,1.602C50.193,60.86,51.08,61,52,61s1.807-0.14,2.644-0.398   C54.134,59.643,53.129,59,52,59z" fill="#FF0000"></path></g></g><g id="SvgjsG14628" featurekey="nameFeature-0" transform="matrix(0.7752795810753854,0,0,0.7752795810753854,88.44944083784922,-1.0399795783376256)" fill="#323232"><path d="M2.52 40 c-0.28 0 -0.52 -0.24 -0.52 -0.52 l0 -23.96 c0 -0.28 0.24 -0.52 0.52 -0.52 l5.2 0 c0.28 0 0.52 0.24 0.52 0.52 l0 23.96 c0 0.28 -0.24 0.52 -0.52 0.52 l-5.2 0 z M22.92 40.24 c-1.92 0 -3.84 -0.36 -5.68 -1.08 c-1.84 -0.68 -3.48 -1.68 -4.84 -2.88 c-0.16 -0.16 -0.2 -0.4 -0.12 -0.6 l1.4 -4.76 c0.08 -0.16 0.2 -0.28 0.36 -0.28 c0.16 -0.04 0.32 0 0.44 0.12 c2.12 2 4.52 3.8 7.52 3.96 c0.8 0.04 1.68 0.08 2.44 -0.16 c2.36 -0.76 1.36 -3.16 -0.4 -3.88 c-0.6 -0.24 -1.44 -0.52 -2.52 -0.84 c-1.6 -0.44 -2.92 -0.92 -3.92 -1.4 c-1.08 -0.48 -2 -1.24 -2.8 -2.24 c-0.76 -1.04 -1.16 -2.4 -1.16 -4.04 c0 -1.56 0.4 -2.92 1.2 -4.08 s1.92 -2.08 3.32 -2.68 s3.04 -0.92 4.88 -0.92 c1.64 0 3.24 0.24 4.84 0.76 c1.56 0.48 2.96 1.16 4.2 1.96 c0.2 0.16 0.28 0.4 0.16 0.64 l-1.32 4.48 c-0.04 0.16 -0.16 0.24 -0.32 0.28 c-0.12 0.04 -0.28 0.04 -0.4 -0.04 c-1.8 -1.12 -3.6 -2.48 -5.72 -2.76 c-1.4 -0.2 -3.52 -0.12 -4 1.56 c-0.6 2.16 2.56 2.72 4 3.16 c1.6 0.48 2.92 0.96 3.96 1.44 c1.08 0.52 2.04 1.32 2.8 2.32 c0.8 1.04 1.2 2.44 1.2 4.12 c0 1.64 -0.44 3.04 -1.28 4.24 c-0.8 1.2 -1.96 2.08 -3.4 2.72 c-1.44 0.56 -3.04 0.88 -4.84 0.88 z M36.96 40 c-0.32 0 -0.52 -0.24 -0.52 -0.52 l0 -23.96 c0 -0.28 0.2 -0.52 0.52 -0.52 l9.76 0 c3.04 0 5.44 0.76 7.12 2.32 c2.48 2.24 3.32 6.48 2.12 9.6 c-0.44 1.12 -1.2 2.16 -2.16 2.92 c-0.56 0.44 -1.16 0.76 -1.76 1.08 c1.72 2.72 4.32 8.24 4.32 8.24 c0.04 0.08 0.12 0.2 0.12 0.32 c0 0.28 -0.24 0.52 -0.52 0.52 l-5.92 0 c-0.16 0 -0.36 -0.12 -0.44 -0.28 l-3.48 -7.64 c-1.24 0.08 -2.2 0.04 -3.48 0.04 l0 7.36 c0 0.28 -0.24 0.52 -0.52 0.52 l-5.16 0 z M42.64 26.560000000000002 c0 0 5.04 0.56 6.8 -0.6 c0.68 -0.44 1.08 -1.52 1.08 -2.32 c-0.04 -0.88 -0.48 -1.8 -1.2 -2.36 c-0.76 -0.64 -2.64 -0.84 -3.6 -0.84 l-3.08 0.08 l0 6.04 z M61.04 40 c-0.16 0 -0.32 -0.08 -0.4 -0.24 c-0.12 -0.12 -0.12 -0.32 -0.08 -0.48 l9.32 -23.96 c0.08 -0.2 0.28 -0.32 0.48 -0.32 l5.36 0 c0.2 0 0.4 0.12 0.48 0.32 l9.16 23.96 c0.04 0.16 0.04 0.32 -0.08 0.48 c-0.08 0.16 -0.24 0.24 -0.4 0.24 l-5.56 0 c-0.2 0 -0.4 -0.12 -0.48 -0.32 l-1.48 -3.68 l-9 0.04 l-1.48 3.64 c-0.08 0.2 -0.28 0.32 -0.48 0.32 l-5.36 0 z M70 31 l5.76 0 l-2.88 -8.48 z M89.52 40 c-0.28 0 -0.52 -0.24 -0.52 -0.52 l0 -23.96 c0 -0.28 0.24 -0.52 0.52 -0.52 l4.72 0 c0.16 0 0.32 0.08 0.44 0.2 l9.2 14.2 l0 -13.88 c0 -0.28 0.24 -0.52 0.52 -0.52 l4.92 0 c0.28 0 0.52 0.24 0.52 0.52 l0 23.96 c0 0.28 -0.24 0.52 -0.52 0.52 l-4.72 0 c-0.16 0 -0.32 -0.08 -0.44 -0.2 l-9.16 -14.12 l0 13.8 c0 0.28 -0.24 0.52 -0.52 0.52 l-4.96 0 z M114.36 40 c-0.16 0 -0.32 -0.08 -0.4 -0.24 c-0.12 -0.12 -0.12 -0.32 -0.08 -0.48 l9.32 -23.96 c0.08 -0.2 0.28 -0.32 0.48 -0.32 l5.36 0 c0.2 0 0.4 0.12 0.48 0.32 l9.16 23.96 c0.04 0.16 0.04 0.32 -0.08 0.48 c-0.08 0.16 -0.24 0.24 -0.4 0.24 l-5.56 0 c-0.2 0 -0.4 -0.12 -0.48 -0.32 l-1.48 -3.68 l-9 0.04 l-1.48 3.64 c-0.08 0.2 -0.28 0.32 -0.48 0.32 l-5.36 0 z M123.32000000000001 31 l5.76 0 l-2.88 -8.48 z M152.51999999999998 40 c-2.36 0 -4.52 -0.56 -6.44 -1.68 c-1.92 -1.16 -3.44 -2.72 -4.52 -4.68 s-1.64 -4.16 -1.64 -6.6 c0 -2.36 0.56 -4.56 1.68 -6.52 c1.12 -1.92 2.68 -3.48 4.6 -4.6 c1.96 -1.12 4.16 -1.68 6.48 -1.68 c1.76 0 3.48 0.4 5.16 1.12 c1.68 0.76 3.12 1.76 4.32 3.04 c0.16 0.2 0.16 0.48 0 0.68 l-3.8 3.12 c-0.12 0.12 -0.24 0.2 -0.4 0.2 s-0.32 -0.08 -0.4 -0.2 c-2.04 -2.48 -5.32 -3 -8.08 -1.28 c-2.4 1.48 -3.28 4.2 -3.16 6.92 c0.12 2.76 2.12 5.12 4.76 5.92 c2.4 0.72 4.76 0.16 6.48 -1.68 c0.12 -0.08 0.24 -0.16 0.4 -0.12 c0.16 0 0.28 0.04 0.36 0.16 l3.88 2.72 c0.16 0.2 0.16 0.48 0 0.68 c-1.28 1.36 -2.8 2.48 -4.48 3.28 c-1.72 0.8 -3.48 1.2 -5.2 1.2 z M179.2 40 c-2.4 0 -4.6 -0.56 -6.52 -1.68 c-1.96 -1.12 -3.52 -2.72 -4.68 -4.64 c-1.12 -1.96 -1.68 -4.2 -1.68 -6.6 c0 -2.36 0.56 -4.56 1.68 -6.52 c1.16 -1.96 2.68 -3.52 4.64 -4.64 s4.16 -1.68 6.56 -1.68 c2.36 0 4.56 0.56 6.52 1.68 s3.52 2.68 4.64 4.64 c1.16 1.96 1.72 4.16 1.72 6.52 c0 2.4 -0.56 4.6 -1.72 6.56 c-1.12 1.96 -2.68 3.52 -4.64 4.68 c-1.96 1.12 -4.16 1.68 -6.52 1.68 z M179.28 34.24 c1.16 0 2.24 -0.32 3.2 -0.92 c1 -0.64 1.8 -1.48 2.36 -2.6 c0.6 -1.08 0.88 -2.32 0.88 -3.64 c0 -1.28 -0.28 -2.52 -0.88 -3.6 c-0.56 -1.08 -1.36 -1.92 -2.36 -2.56 c-0.96 -0.6 -2.04 -0.92 -3.2 -0.92 c-1.2 0 -2.28 0.32 -3.28 0.92 c-1.04 0.64 -1.84 1.48 -2.44 2.56 c-0.6 1.12 -0.88 2.32 -0.88 3.6 c0 1.32 0.28 2.56 0.88 3.64 c0.64 1.08 1.44 1.96 2.44 2.56 c1 0.64 2.08 0.96 3.28 0.96 z M196.2 40 c-0.28 0 -0.52 -0.24 -0.52 -0.52 l0 -23.96 c0 -0.28 0.24 -0.52 0.52 -0.52 l5.76 0 c0.2 0 0.4 0.12 0.48 0.28 l6 14.8 l5.96 -14.8 c0.08 -0.16 0.28 -0.28 0.48 -0.28 l5.76 0 c0.28 0 0.52 0.24 0.52 0.52 l0 23.96 c0 0.28 -0.24 0.52 -0.52 0.52 l-4.68 0 c-0.28 0 -0.52 -0.24 -0.52 -0.52 l0 -12.88 l-4.88 12.4 c-0.08 0.16 -0.28 0.28 -0.44 0.28 l-3.36 0 c-0.2 0 -0.4 -0.12 -0.48 -0.28 l-4.92 -12.4 l0 12.88 c0 0.28 -0.24 0.52 -0.52 0.52 l-4.64 0 z M225.63999999999996 40 c-0.28 0 -0.48 -0.24 -0.48 -0.52 l0 -23.96 c0 -0.28 0.2 -0.52 0.48 -0.52 l9.8 0 c3.04 0 5.44 0.76 7.12 2.32 c2.48 2.24 3.32 6.48 2.12 9.6 c-0.44 1.12 -1.2 2.16 -2.16 2.92 c-3.24 2.52 -7.28 2.28 -11.16 2.28 l0 7.36 c0 0.28 -0.24 0.52 -0.52 0.52 l-5.2 0 z M231.35999999999996 26.560000000000002 c0 0 5.04 0.56 6.8 -0.6 c0.68 -0.44 1.08 -1.52 1.08 -2.32 c-0.04 -0.88 -0.48 -1.8 -1.2 -2.36 c-0.76 -0.64 -2.64 -0.84 -3.6 -0.84 l-3.08 0.08 l0 6.04 z M259.71999999999997 40 c-2.16 0 -3.72 -0.44 -5.36 -1.32 c-1.6 -0.88 -2.88 -2.12 -3.76 -3.76 c-0.88 -1.6 -1.32 -3.52 -1.32 -5.72 l0 -14.08 c0 -0.28 0.24 -0.48 0.52 -0.48 l5.2 0 c0.28 0 0.48 0.2 0.48 0.48 l0 14.08 c0 1.6 0.44 2.84 1.28 3.72 s1.6 1.32 3 1.32 s2.12 -0.44 2.92 -1.28 c0.8 -0.88 1.2 -2.16 1.2 -3.76 l0 -14.08 c0 -0.28 0.24 -0.48 0.52 -0.48 l5.2 0 c0.28 0 0.52 0.2 0.52 0.48 l0 14.08 c0 2.2 -0.44 4.12 -1.32 5.72 c-0.84 1.64 -2.12 2.88 -3.72 3.76 s-3.2 1.32 -5.36 1.32 z M280.59999999999997 40 c-0.28 0 -0.48 -0.24 -0.48 -0.52 l0 -18.88 l-5.48 0 c-0.28 0 -0.52 -0.2 -0.52 -0.48 l0 -4.6 c0 -0.28 0.24 -0.52 0.52 -0.52 l17.16 0 c0.32 0 0.52 0.24 0.52 0.52 l0 4.6 c0 0.28 -0.2 0.48 -0.52 0.48 l-5.48 0 l0 18.88 c0 0.28 -0.24 0.52 -0.52 0.52 l-5.2 0 z M296.31999999999994 40 l0 -23.96 c0 -1 0.2 -1.2 0.52 -1.2 l17.52 0 c0.28 0 0.52 0.2 0.52 0.48 l0 4.52 c0 0.28 -0.24 0.52 -0.52 0.52 l-11.84 0 l0 4.16 l7.48 0 c0.28 0 0.52 0.24 0.52 0.52 l0 4.48 c0 0.28 -0.24 0.52 -0.52 0.52 l-7.48 0 l0 4.28 l11.8 0 c0.28 0 0.52 0.24 0.52 0.52 l0 4.48 c0 0.28 -0.24 0.52 -0.52 0.52 l-17.48 0 c-0.32 0 -0.52 -0.24 -0.52 0.16 z M319.3999999999999 40 c-0.32 0 -0.52 -0.24 -0.52 -0.52 l0 -23.96 c0 -0.28 0.2 -0.52 0.52 -0.52 l9.76 0 c3.04 0 5.44 0.76 7.12 2.32 c2.48 2.24 3.32 6.48 2.12 9.6 c-0.44 1.12 -1.2 2.16 -2.16 2.92 c-0.56 0.44 -1.16 0.76 -1.76 1.08 c1.72 2.72 4.32 8.24 4.32 8.24 c0.04 0.08 0.12 0.2 0.12 0.32 c0 0.28 -0.24 0.52 -0.52 0.52 l-5.92 0 c-0.16 0 -0.36 -0.12 -0.44 -0.28 l-3.48 -7.64 c-1.24 0.08 -2.2 0.04 -3.48 0.04 l0 7.36 c0 0.28 -0.24 0.52 -0.52 0.52 l-5.16 0 z M325.0799999999999 26.560000000000002 c0 0 5.04 0.56 6.8 -0.6 c0.68 -0.44 1.08 -1.52 1.08 -2.32 c-0.04 -0.88 -0.48 -1.8 -1.2 -2.36 c-0.76 -0.64 -2.64 -0.84 -3.6 -0.84 l-3.08 0.08 l0 6.04 z M353.63999999999993 40.24 c-1.92 0 -3.84 -0.36 -5.68 -1.08 c-1.84 -0.68 -3.48 -1.68 -4.84 -2.88 c-0.16 -0.16 -0.2 -0.4 -0.12 -0.6 l1.4 -4.76 c0.08 -0.16 0.2 -0.28 0.36 -0.28 c0.16 -0.04 0.32 0 0.44 0.12 c2.12 2 4.52 3.8 7.52 3.96 c0.8 0.04 1.68 0.08 2.44 -0.16 c2.36 -0.76 1.36 -3.16 -0.4 -3.88 c-0.6 -0.24 -1.44 -0.52 -2.52 -0.84 c-1.6 -0.44 -2.92 -0.92 -3.92 -1.4 c-1.08 -0.48 -2 -1.24 -2.8 -2.24 c-0.76 -1.04 -1.16 -2.4 -1.16 -4.04 c0 -1.56 0.4 -2.92 1.2 -4.08 s1.92 -2.08 3.32 -2.68 s3.04 -0.92 4.88 -0.92 c1.64 0 3.24 0.24 4.84 0.76 c1.56 0.48 2.96 1.16 4.2 1.96 c0.2 0.16 0.28 0.4 0.16 0.64 l-1.32 4.48 c-0.04 0.16 -0.16 0.24 -0.32 0.28 c-0.12 0.04 -0.28 0.04 -0.4 -0.04 c-1.8 -1.12 -3.6 -2.48 -5.72 -2.76 c-1.4 -0.2 -3.52 -0.12 -4 1.56 c-0.6 2.16 2.56 2.72 4 3.16 c1.6 0.48 2.92 0.96 3.96 1.44 c1.08 0.52 2.04 1.32 2.8 2.32 c0.8 1.04 1.2 2.44 1.2 4.12 c0 1.64 -0.44 3.04 -1.28 4.24 c-0.8 1.2 -1.96 2.08 -3.4 2.72 c-1.44 0.56 -3.04 0.88 -4.84 0.88 z" fill="#323232"></path></g><g id="SvgjsG14629" featurekey="sloganFeature-0" transform="matrix(0.6595024260081824,0,0,0.6595024260081824,190.3404974167542,37.93990946032563)" fill="#323232"><path d="M13.8 15.46 q0 1.46 -0.88 2.6 q-0.86 1.08 -2.37 1.68 t-3.41 0.6 q-1.74 0 -3.38 -0.81 t-2.76 -2.25 l1.56 -1.46 q1.94 2.34 4.58 2.34 q1.16 0 2.12 -0.28 q1.06 -0.32 1.64 -0.9 q0.66 -0.64 0.66 -1.52 q0 -1.06 -0.66 -1.6 q-0.56 -0.46 -1.66 -0.6 q-0.64 -0.08 -2.1 -0.08 q-2.68 0 -4.09 -0.98 t-1.41 -2.88 q0 -1.2 0.71 -2.28 t1.95 -1.72 q1.28 -0.68 2.84 -0.68 q1.76 0 3.18 0.54 q1.52 0.58 2.82 1.82 l-1.36 1.6 q-1.22 -0.98 -2.22 -1.37 t-2.42 -0.39 q-0.82 0 -1.53 0.34 t-1.13 0.91 t-0.42 1.21 q0 1.72 3.18 1.72 q2.54 0 4.02 0.52 q1.4 0.5 2 1.52 q0.54 0.9 0.54 2.4 z M21.94 11.64 q1.34 -1.4 2.42 -3.12 t1.72 -3.44 l2.5 0 q-1.02 2.38 -2.48 4.56 q-1.32 1.98 -3.08 3.9 l0 6.46 l-2.16 0 l0 -6.46 q-1.76 -1.92 -3.08 -3.9 q-1.46 -2.18 -2.48 -4.56 l2.5 0 q0.64 1.72 1.72 3.44 t2.42 3.12 z M42.88 15.46 q0 1.46 -0.88 2.6 q-0.86 1.08 -2.37 1.68 t-3.41 0.6 q-1.74 0 -3.38 -0.81 t-2.76 -2.25 l1.56 -1.46 q1.94 2.34 4.58 2.34 q1.16 0 2.12 -0.28 q1.06 -0.32 1.64 -0.9 q0.66 -0.64 0.66 -1.52 q0 -1.06 -0.66 -1.6 q-0.56 -0.46 -1.66 -0.6 q-0.64 -0.08 -2.1 -0.08 q-2.68 0 -4.09 -0.98 t-1.41 -2.88 q0 -1.2 0.71 -2.28 t1.95 -1.72 q1.28 -0.68 2.84 -0.68 q1.76 0 3.18 0.54 q1.52 0.58 2.82 1.82 l-1.36 1.6 q-1.22 -0.98 -2.22 -1.37 t-2.42 -0.39 q-0.82 0 -1.53 0.34 t-1.13 0.91 t-0.42 1.21 q0 1.72 3.18 1.72 q2.54 0 4.02 0.52 q1.4 0.5 2 1.52 q0.54 0.9 0.54 2.4 z M57.18000000000001 7.279999999999999 l-5.26 0 l0 12.72 l-2.12 0 l0 -12.72 l-5.32 0 l0 -2.2 l12.7 0 l0 2.2 z M62.160000000000004 14.02 l0 3.8 l9.2 0 l0 2.18 l-11.38 0 l0 -14.92 l10.5 0 l0 2.2 l-8.32 0 l0 4.52 q0.62 -0.36 1.38 -0.48 q0.56 -0.1 1.44 -0.1 l3.26 0 l0 2.22 l-3.26 0 q-0.82 0 -1.44 0.1 q-0.76 0.14 -1.38 0.48 z M87.6 9.74 l-5.1 6.1 l-5.06 -6.1 l0 10.26 l-2.14 0 l0 -12.82 l-1.74 -2.1 l2.82 0 l6.1 7.32 l6.18 -7.32 l2.82 0 l-1.74 2.1 l0 12.82 l-2.14 0 l0 -10.26 z M106.17999999999999 15.46 q0 1.46 -0.88 2.6 q-0.86 1.08 -2.37 1.68 t-3.41 0.6 q-1.74 0 -3.38 -0.81 t-2.76 -2.25 l1.56 -1.46 q1.94 2.34 4.58 2.34 q1.16 0 2.12 -0.28 q1.06 -0.32 1.64 -0.9 q0.66 -0.64 0.66 -1.52 q0 -1.06 -0.66 -1.6 q-0.56 -0.46 -1.66 -0.6 q-0.64 -0.08 -2.1 -0.08 q-2.68 0 -4.09 -0.98 t-1.41 -2.88 q0 -1.2 0.71 -2.28 t1.95 -1.72 q1.28 -0.68 2.84 -0.68 q1.76 0 3.18 0.54 q1.52 0.58 2.82 1.82 l-1.36 1.6 q-1.22 -0.98 -2.22 -1.37 t-2.42 -0.39 q-0.82 0 -1.53 0.34 t-1.13 0.91 t-0.42 1.21 q0 1.72 3.18 1.72 q2.54 0 4.02 0.52 q1.4 0.5 2 1.52 q0.54 0.9 0.54 2.4 z M116.97999999999999 14.02 l0 3.8 l9.2 0 l0 2.18 l-11.38 0 l0 -14.92 l10.5 0 l0 2.2 l-8.32 0 l0 4.52 q0.62 -0.36 1.38 -0.48 q0.56 -0.1 1.44 -0.1 l3.26 0 l0 2.22 l-3.26 0 q-0.82 0 -1.44 0.1 q-0.76 0.14 -1.38 0.48 z M135.88 14.02 l-4.02 5.98 l-2.18 0 l0 -14.92 l2.18 0 l0 11.14 l7.58 -11.14 l2.62 0 l-4.9 7.02 l2.68 4.02 q0.64 0.96 1.26 1.36 q0.5 0.32 1.06 0.32 l0.62 -0.02 l0 2.22 l-0.4 0 q-1 0.02 -1.46 -0.08 q-0.74 -0.12 -1.36 -0.6 q-0.7 -0.56 -1.42 -1.68 z M154.57999999999998 7.279999999999999 l0 10.54 l3.38 0 q1.4 0 2.52 -0.72 q1.06 -0.7 1.66 -1.88 t0.6 -2.58 q0 -1.46 -0.57 -2.68 t-1.63 -1.94 q-1.14 -0.74 -2.62 -0.74 l-3.34 0 z M151.26 7.279999999999999 l-0.96 -2.2 l7.6 0 q1.98 0 3.62 1.02 q1.58 0.98 2.5 2.68 t0.92 3.7 q0 1.5 -0.59 2.97 t-1.63 2.57 q-1 1.08 -2.14 1.54 q-1.1 0.44 -2.62 0.44 l-5.52 0 l0 -12.72 l-1.18 0 z M174.83999999999997 20.34 q-2.1 0 -3.61 -0.73 t-2.3 -2.11 t-0.79 -3.3 l0 -9.12 l2.16 0 l0 9.12 q0 1.92 1.18 2.94 t3.36 1.02 t3.36 -1.02 t1.18 -2.94 l0 -9.12 l2.16 0 l0 9.12 q0 1.92 -0.79 3.3 t-2.3 2.11 t-3.61 0.73 z M198.48 9.74 l-5.1 6.1 l-5.06 -6.1 l0 10.26 l-2.14 0 l0 -12.82 l-1.74 -2.1 l2.82 0 l6.1 7.32 l6.18 -7.32 l2.82 0 l-1.74 2.1 l0 12.82 l-2.14 0 l0 -10.26 z M223.61999999999998 9.74 l-5.1 6.1 l-5.06 -6.1 l0 10.26 l-2.14 0 l0 -12.82 l-1.74 -2.1 l2.82 0 l6.1 7.32 l6.18 -7.32 l2.82 0 l-1.74 2.1 l0 12.82 l-2.14 0 l0 -10.26 z M235.26 6.66 l-0.82 -1.84 l2.4 0 l7.18 15.18 l-2.44 0 l-0.98 -2.18 l-4.54 0 q-1.28 0 -2.3 0.24 q-0.9 0.22 -1.5 0.58 q-0.54 0.32 -0.72 0.66 l-0.38 0.7 l-2.36 0 z M236.85999999999999 15.620000000000001 l2.76 0 l-3.26 -6.3 l-3.3 7.14 q0.44 -0.38 1.34 -0.6 q1.02 -0.24 2.46 -0.24 z M258.41999999999996 15.46 q0 1.46 -0.88 2.6 q-0.86 1.08 -2.37 1.68 t-3.41 0.6 q-1.74 0 -3.38 -0.81 t-2.76 -2.25 l1.56 -1.46 q1.94 2.34 4.58 2.34 q1.16 0 2.12 -0.28 q1.06 -0.32 1.64 -0.9 q0.66 -0.64 0.66 -1.52 q0 -1.06 -0.66 -1.6 q-0.56 -0.46 -1.66 -0.6 q-0.64 -0.08 -2.1 -0.08 q-2.68 0 -4.09 -0.98 t-1.41 -2.88 q0 -1.2 0.71 -2.28 t1.95 -1.72 q1.28 -0.68 2.84 -0.68 q1.76 0 3.18 0.54 q1.52 0.58 2.82 1.82 l-1.36 1.6 q-1.22 -0.98 -2.22 -1.37 t-2.42 -0.39 q-0.82 0 -1.53 0.34 t-1.13 0.91 t-0.42 1.21 q0 1.72 3.18 1.72 q2.54 0 4.02 0.52 q1.4 0.5 2 1.52 q0.54 0.9 0.54 2.4 z M272.71999999999997 7.279999999999999 l-5.26 0 l0 12.72 l-2.12 0 l0 -12.72 l-5.32 0 l0 -2.2 l12.7 0 l0 2.2 z" fill="#323232"></path></g></svg>